# xmcd
#
# Track frame offsets: 
#        150
#        15665
#        30828
#        50309
#        63419
#        81482
#        102279
#        121963
#        137705
#        151081
#        167733
#        180459
#        190313
#        204307
#        219245
#        230514
#        247407
#        259724
#        276809
#        291229
#        305694
#        319679
#
# Disc length: 4417 seconds
#
# Revision: 1
# Processed by: cddbd v1.5.1PL0 Copyright (c) Steve Scherf et al.
# Submitted via: ExactAudioCopy v0.95a5
#
DISCID=36113f16
DTITLE=Various Artist - 30 let Ceske Country - 3.  - -  1987 - 1996
DYEAR=1998
DGENRE=Country
TTITLE0=Greenhorns - Sedm spanelskych andelu
TTITLE1=Vera Martinova - Az na vrcholky hor 
TTITLE2=Karel Cernoch a Filip Brabec - Vic nez pritel
TTITLE3=Michal Tucny a Zdenek Rytir - Vcera jsem te nevidel
TTITLE4=Honza Vycital - Battledress
TTITLE5=Spiritual Kvintet - Uz nechci se vdat
TTITLE6=Michal Tucny - Medicinman
TTITLE7=Tomas Linka - Tequila Sheila
TTITLE8=Pavel Bobek - Country boy
TTITLE9=Pavel Zalman Lohonka - Tulacka ukolebavka 
TTITLE10=Michal Tucny - Ja budu zit naveky
TTITLE11=Honza Vycital - Redback pod prkynkem hajzliku
TTITLE12=Pavel Brumer - Mym hrdinou byl vzdycky cowboy 
TTITLE13=Pavlina Jisova - Rikali o nas, ze nejsme 
TTITLE14=Mirek Cerny - Najednou
TTITLE15=Pavel Bobek a Robert Krestan - Musim se sam sobe smat
TTITLE16=Vrata Vyskocil - Jedu dal
TTITLE17=Wabi Danek - Ranni dest
TTITLE18=Mirek Hoffmann - U silnice E 55
TTITLE19=Petr Kocman - Asfaltovy blues
TTITLE20=Ladislav Vodicka - Tom Dooley
TTITLE21=Rangers - Dej Boze muj
EXTD=ID3G: 2
EXTT0=
EXTT1=
EXTT2=
EXTT3=
EXTT4=
EXTT5=
EXTT6=
EXTT7=
EXTT8=
EXTT9=
EXTT10=
EXTT11=
EXTT12=
EXTT13=
EXTT14=
EXTT15=
EXTT16=
EXTT17=
EXTT18=
EXTT19=
EXTT20=
EXTT21=
PLAYORDER=
